<svg xmlns="http://www.w3.org/2000/svg" width="256" height="256" viewBox="0 0 256 256"><path fill="#FFF" d="M84.9633281,27.2165162 C75.5794474,27.5613547 66.9068597,30.0702396 59.5137151,35.2602199 C50.3982037,41.6592999 43.5957219,51.8867234 39.6641393,66.5924361 C38.6756156,70.2387675 40.8385014,73.9952874 44.498452,74.9824389 C48.1603438,75.9701141 51.9303478,73.8105441 52.9129815,70.1865419 C57.8732485,50.9359123 68.6756142,41.2112332 85.769337,40.4658851 C96.436666,40.0328021 107.112698,41.0767973 117.492628,43.5680694 L117.619727,43.6030418 C122.883921,45.2399661 127.457053,48.5694883 130.625223,53.0722501 L130.719033,53.2187224 C139.649683,68.5964894 156.572331,77.5707598 174.349982,76.3552907 L174.486405,76.3506325 L198.937698,76.3506325 L200.888268,77.9087339 C203.762294,90.594882 202.627988,103.857497 197.628058,115.905605 C194.403629,123.320708 189.723606,125.493772 176.072327,127.377275 C164.578662,128.46659 153.242774,130.831813 142.306584,134.418416 C129.126701,138.984992 119.975774,150.350256 112.205255,167.249239 C107.878471,176.631255 103.972452,185.402781 100.616204,193.322882 C99.3083497,196.409167 97.9358043,199.554254 96.258234,203.326719 C95.7860005,204.388662 90.9716597,215.13139 89.500994,218.464633 C88.7521596,220.090986 88.6860981,221.948052 89.3174483,223.623152 C89.949126,225.299122 91.2267093,226.654302 92.8781253,227.392073 C93.7454586,227.786259 94.6869215,227.992393 95.6402258,227.996798 L95.6851219,227.997509 C98.2402377,228.066697 100.613681,226.687894 101.812929,224.439185 L101.792242,224.475 L102.000394,224.023386 C103.588268,220.5626 105.087905,217.115593 107.000059,212.577353 L107.290038,211.888294 C107.571983,211.217548 107.865423,210.517502 108.21714,209.676918 C110.363179,204.548004 111.075036,202.847396 111.725926,201.321502 L111.875674,200.970994 C112.108877,200.425975 112.347836,199.87122 112.656073,199.156221 C115.474186,192.619216 116.730243,189.714061 118.314527,186.081337 C120.40693,181.283505 122.28181,177.045344 124.114737,172.982659 C130.729619,158.538436 137.686992,150.492843 146.544371,147.20331 L146.641001,147.170205 C156.944444,143.931834 167.558113,141.773125 178.233101,140.738023 C185.151055,139.794396 187.772209,139.320142 191.527231,138.081276 C199.867252,135.329717 205.898182,130.237955 209.668679,121.388936 C215.752379,106.903691 217.179244,90.8924702 213.752478,75.5641707 L213.71384,75.3229523 C212.992882,67.9685804 206.672699,62.431705 199.199676,62.6687444 L174.056242,62.668 L173.716019,62.700849 C160.738225,63.8380901 148.284375,57.3076359 141.864819,45.9974611 L141.691242,45.687 L141.425435,45.293475 C136.464388,38.0519943 129.172088,32.7161097 120.756421,30.1700912 L120.289242,30.032 L119.188941,29.7943393 C107.961838,27.4216253 96.4643751,26.5536293 84.9633281,27.2165162 Z"/></svg>